<?xml version="1.0" encoding="UTF-8"?>
<svg id="Auto_fill" xmlns="http://www.w3.org/2000/svg" viewBox="0 0 44 44">
  <defs>
    <style>
      .cls-1 {
        fill: #f89621;
      }

      .cls-2 {
        fill: #fff;
      }
    </style>
  </defs>
  <circle class="cls-1" cx="22" cy="22" r="22"/>
  <g>
    <path class="cls-2" d="M23.66,25.6c0,3.04-2.46,5.51-5.51,5.51s-5.5-2.47-5.5-5.51,2.46-5.51,5.5-5.51c.46,0,.9.06,1.32.17l-3.66,3.28c-.44.41-.37,1.02-.4,1.79-.03.65-.03,1.62-1.01,3.16-.13.19.1.41.29.28,1.42-.91,2.56-.79,3.19-.77.77.03,1.38.14,1.82-.27l3.8-3.43c.11.42.16.85.16,1.3Z"/>
    <g>
      <g id="g2035">
        <path id="path2037" class="cls-2" d="M28.58,20.29l-4.7-5.07-2.47,2.29,4.7,5.07,2.47-2.29Z"/>
      </g>
      <g id="g2039">
        <path id="path2041" class="cls-2" d="M25.01,21.21l-5.54,5c-.26.24-.62.18-1.08.16-.38-.01-1.06-.09-1.9.46-.11.07-.25-.06-.17-.17.58-.91.59-1.49.6-1.87.02-.46-.02-.82.24-1.07l5.57-5"/>
      </g>
      <g id="g2043">
        <path id="path2045" class="cls-2" d="M24.95,16.51l3.43-3.15c.72-.66,1.84-.62,2.5.11.66.72.61,1.83-.1,2.49l-3.41,3.17"/>
      </g>
    </g>
  </g>
</svg>