<?xml version="1.0" encoding="UTF-8"?>
<svg id="confirm" xmlns="http://www.w3.org/2000/svg" viewBox="0 0 44 44">
  <defs>
    <style>
      .cls-1 {
        fill: #7fbd42;
      }

      .cls-2 {
        fill: #fff;
      }
    </style>
  </defs>
  <circle class="cls-1" cx="22" cy="22" r="22"/>
  <path class="cls-2" d="M27.96,15.19h-11.93c-1.4,0-2.55,1.15-2.55,2.55v6.81c0,1.41,1.15,2.56,2.55,2.56h6.56l2.34,1.56c.39.26.92.15,1.18-.24.02-.02.03-.05.05-.08l.64-1.24h1.16c1.4,0,2.55-1.15,2.55-2.56v-6.81c0-1.4-1.15-2.55-2.55-2.55ZM21.27,23.92l-2.6-2.61,1-1,1.6,1.61,3.79-3.79,1,1-4.79,4.79Z"/>
</svg>