<?xml version="1.0" encoding="UTF-8"?>
<svg id="default" xmlns="http://www.w3.org/2000/svg" viewBox="0 0 44 44">
  <defs>
    <style>
      .cls-1 {
        fill: #c4c4c4;
      }

      .cls-2 {
        fill: #fff;
      }
    </style>
  </defs>
  <circle class="cls-1" cx="22" cy="22" r="22"/>
  <g>
    <path class="cls-2" d="M28.95,15.32l-14.61,5.07v-3.42c0-1.3,1.05-2.35,2.34-2.35h10.6c.65,0,1.25.27,1.67.7Z"/>
    <path class="cls-2" d="M29.63,22.83v4.21c0,1.29-1.05,2.34-2.35,2.34h-10.6c-.93,0-1.73-.54-2.11-1.33l15.06-5.22Z"/>
    <path class="cls-2" d="M29.29,19.12l.16-1.69c.02-.18-.06-.36-.2-.47-.14-.11-.33-.14-.5-.09l-14.97,5.19c-.28.1-.43.41-.33.69.03.07.07.14.12.19l1.12,1.17-.16,1.7c-.02.18.06.36.2.47.08.07.19.11.29.11.07,0,.14,0,.2-.03l14.97-5.19c.28-.1.43-.41.33-.69-.03-.07-.06-.13-.12-.19l-1.12-1.18Z"/>
  </g>
</svg>