<?xml version="1.0" encoding="UTF-8"?>
<svg id="delete" xmlns="http://www.w3.org/2000/svg" viewBox="0 0 44 44">
  <defs>
    <style>
      .cls-1 {
        fill: #fff;
      }

      .cls-2 {
        fill: #ef4136;
      }
    </style>
  </defs>
  <circle class="cls-2" cx="22" cy="22" r="22"/>
  <path class="cls-1" d="M25.12,14.15v-.92h-6.24v.92h-4.67v1.56h1.04v13.18c0,.52.18.96.55,1.33.36.37.81.55,1.32.55h9.76c.52,0,.96-.18,1.33-.54.36-.37.54-.81.54-1.34v-13.18h1.04v-1.56h-4.67ZM20.86,26.36c0,.43-.35.78-.78.78s-.78-.35-.78-.78v-7.8c0-.43.35-.78.78-.78s.78.35.78.78v7.8ZM24.7,26.36c0,.43-.35.78-.78.78s-.78-.35-.78-.78v-7.8c0-.43.35-.78.78-.78s.78.35.78.78v7.8Z"/>
</svg>