<?xml version="1.0" encoding="UTF-8"?>
<svg id="edit" xmlns="http://www.w3.org/2000/svg" viewBox="0 0 44 44">
  <defs>
    <style>
      .cls-1 {
        fill: #fec713;
      }

      .cls-2 {
        fill: #fff;
      }
    </style>
  </defs>
  <circle class="cls-1" cx="22" cy="22" r="22"/>
  <path class="cls-2" d="M15,29h1.26l10.24-10.24-1.26-1.26-10.24,10.24v1.26ZM13.5,30.5v-3.38l13.19-13.18c.15-.14.32-.24.5-.32.18-.07.37-.11.57-.11s.39.04.58.11c.19.07.35.18.5.34l1.22,1.24c.16.14.27.31.33.5.07.19.1.38.1.57,0,.2-.03.39-.1.58-.07.18-.18.35-.33.5l-13.18,13.18h-3.38ZM25.86,18.14l-.62-.64,1.26,1.26-.64-.62Z"/>
</svg>