<?xml version="1.0" encoding="UTF-8"?>
<svg id="reject" xmlns="http://www.w3.org/2000/svg" viewBox="0 0 44 44">
  <defs>
    <style>
      .cls-1 {
        fill: #fff;
      }

      .cls-2 {
        fill: #ef4136;
      }
    </style>
  </defs>
  <circle class="cls-2" cx="22" cy="22" r="22"/>
  <path class="cls-1" d="M28,16c-1.54-1.54-3.66-2.5-6-2.5-4.68,0-8.5,3.82-8.5,8.5,0,2.34.96,4.46,2.5,6,1.54,1.54,3.66,2.5,6,2.5s4.46-.96,6-2.5c1.54-1.54,2.5-3.66,2.5-6s-.96-4.46-2.5-6ZM25.56,24.48l-1.08,1.08-2.48-2.49-2.48,2.49-1.08-1.08,2.49-2.48-2.49-2.48,1.08-1.08,2.48,2.49,2.48-2.49,1.08,1.08-2.49,2.48,2.49,2.48Z"/>
</svg>