<?xml version="1.0" encoding="UTF-8"?>
<svg id="upload" xmlns="http://www.w3.org/2000/svg" viewBox="0 0 44 44">
  <defs>
    <style>
      .cls-1 {
        fill: #fff;
      }

      .cls-2 {
        fill: #00a3a3;
      }
    </style>
  </defs>
  <circle class="cls-2" cx="22" cy="22" r="22"/>
  <path class="cls-1" d="M21.15,26.3v-9.54l-2.8,2.8-1.2-1.23,4.85-4.85,4.85,4.85-1.2,1.23-2.8-2.8v9.54h-1.7ZM15.54,30.52c-.57,0-1.06-.2-1.46-.6s-.6-.88-.6-1.46v-2.23c0-.47.38-.85.85-.85h0c.47,0,.85.38.85.85v2.23c0,.09.04.17.11.24.07.07.15.11.24.11h12.93c.09,0,.17-.04.24-.11.07-.07.11-.15.11-.24v-2.23c0-.47.38-.85.85-.85h0c.47,0,.85.38.85.85v2.23c0,.57-.2,1.06-.6,1.46s-.88.6-1.46.6h-12.93Z"/>
</svg>